<svg xmlns="http://www.w3.org/2000/svg" viewBox="0 0 83.41 83.41"><defs><style>.cls-1{fill:none;stroke:#000;stroke-miterlimit:10;stroke-width:2px;}</style></defs><g id="Layer_2" data-name="Layer 2"><g id="Layer_1-2" data-name="Layer 1"><path class="cls-1" d="M80.47,40.24c-.26-.27-6.4-6.58-14.22-6.58-5.57,0-10.26,3.18-12.61,5.12a6.16,6.16,0,0,0-1.17-1.47,6.33,6.33,0,0,0-.11-1.74c3-.28,8.64-1.34,12.61-5.3,5.54-5.54,5.41-14.34,5.41-14.71l0-2.25-2.26-.05c-.37,0-9.16-.13-14.7,5.4-3.88,3.88-5,9.35-5.29,12.41A5.92,5.92,0,0,0,46,30.9a5.69,5.69,0,0,0-1.14-1c1.94-2.32,5.19-7.06,5.19-12.69,0-7.82-6.31-14-6.58-14.22L41.86,1.38,40.24,2.94c-.27.26-6.58,6.4-6.58,14.22,0,5.37,3,9.94,4.91,12.36a5.91,5.91,0,0,0-1.63,1.36,5.76,5.76,0,0,0-1.38.1c-.29-3-1.36-8.61-5.29-12.54C24.73,12.9,15.93,13,15.56,13l-2.25.05-.05,2.26c0,.37-.13,9.16,5.4,14.7,3.81,3.81,9.15,4.94,12.24,5.27a6,6,0,0,0-.18,1.79,6.15,6.15,0,0,0-1.12,1.22c-2.4-2-7-5-12.44-5-7.82,0-14,6.31-14.22,6.58L1.38,41.55l1.56,1.62c.26.27,6.4,6.58,14.22,6.58,5.33,0,9.86-2.91,12.3-4.86a5.91,5.91,0,0,0,1.27,1.42,6.19,6.19,0,0,0,.1,1.55c-3.06.31-8.52,1.41-12.39,5.28C12.9,58.68,13,67.48,13,67.85l.05,2.25,2.26.05h.16c1.29,0,9.35-.21,14.54-5.4,3.81-3.82,4.94-9.18,5.27-12.27a5.69,5.69,0,0,0,1.35.18l.36,0a5.79,5.79,0,0,0,1.34,1.13c-2,2.39-5,7-5,12.49,0,7.82,6.31,14,6.58,14.22L41.55,82l1.62-1.56c.27-.26,6.58-6.4,6.58-14.22,0-5.52-3.12-10.18-5.07-12.55a6,6,0,0,0,1.26-1.09,5.83,5.83,0,0,0,1.91-.11c.3,3,1.39,8.57,5.29,12.47,5.2,5.19,13.26,5.41,14.55,5.41h.16l2.25,0,.05-2.26c0-.37.13-9.16-5.4-14.7-3.89-3.88-9.36-5-12.42-5.29a6.2,6.2,0,0,0,.13-2,6,6,0,0,0,1-1.26c2.31,1.92,7.07,5.22,12.74,5.22,7.82,0,14-6.31,14.22-6.58L82,41.86Z"/><path class="cls-1" d="M45.22,37.33h0a1.35,1.35,0,0,0,1.43,1.31h0c1.27,0,1.92,1.4,1,2.11h0a1.09,1.09,0,0,0,0,1.76h0a1.16,1.16,0,0,1-1,2h0a1.21,1.21,0,0,0-1.42,1.18h0c.06,1.12-1.51,1.62-2.36.75h0a1.48,1.48,0,0,0-2-.09h0a1.4,1.4,0,0,1-2.36-1h0a1.36,1.36,0,0,0-1.43-1.31h0c-1.27,0-1.92-1.41-1-2.11h0a1.09,1.09,0,0,0,0-1.76h0a1.16,1.16,0,0,1,1-2h0A1.22,1.22,0,0,0,38.49,37h0c-.06-1.12,1.5-1.62,2.36-.75h0a1.49,1.49,0,0,0,2,.09h0A1.4,1.4,0,0,1,45.22,37.33Z"/></g></g></svg>