<svg xmlns="http://www.w3.org/2000/svg" viewBox="0 0 66.47 68.28"><defs><style>.cls-1{fill:none;stroke:#000;stroke-miterlimit:10;stroke-width:2px;}</style></defs><g id="Layer_2" data-name="Layer 2"><g id="Layer_1-2" data-name="Layer 1"><path class="cls-1" d="M65.46,43.43a12.85,12.85,0,0,1-.29,3.2c-1,4.65-4.49,9.12-11,11.55L30.33,67,21.5,43.19a20.11,20.11,0,0,1-.9-3.07l7,2.71,6.19,16.68L52.1,52.72C55.82,51.34,58,49.24,59,47a7.41,7.41,0,0,0,.66-2.91,7.62,7.62,0,0,0-.47-2.85,7.73,7.73,0,0,0-.91-1.73,7.5,7.5,0,0,0-2.16-2.07c-2.28-1.45-5.6-1.88-9.81-.32l-2.72,1-1-2.73a15.22,15.22,0,0,0-1.47-3,9.81,9.81,0,0,0-4.16-3.84c-.16-.07-.33-.15-.5-.21a9.11,9.11,0,0,0-1.47-.4,7.61,7.61,0,0,0-7.1,2.63A8.51,8.51,0,0,0,26,36l-5.63-2.2a13.92,13.92,0,0,1,3-6.92,13.43,13.43,0,0,1,12.55-4.66,13.23,13.23,0,0,1,2.59.72,14.6,14.6,0,0,1,5,3.24,18.35,18.35,0,0,1,3.4,4.69c6.23-1.49,11.37.29,14.65,3.57a13.66,13.66,0,0,1,2,2.56,14.27,14.27,0,0,1,1.07,2.23A13.12,13.12,0,0,1,65.46,43.43Z"/><path class="cls-1" d="M45,22.37l-1.48,3.78a14.6,14.6,0,0,0-5-3.24l1-2.65c2.67-6.84,0-11.42-3.89-12.93s-9,0-11.63,6.89L23,16.94l-2.71-1.06c-3.34-1.29-6.41-1.4-8.85-.32a7.81,7.81,0,0,0-1.77,1.07,7.63,7.63,0,0,0-1.2,1.21,7.44,7.44,0,0,0-1.38,2.77,7.68,7.68,0,0,0,.25,4.64,8.26,8.26,0,0,0,1.56,2.59,13.28,13.28,0,0,0,5.35,3.56l6.11,2.37L26,36l6.5,2.52,4-10.16c.17.06.34.14.5.21a9.81,9.81,0,0,1,4.16,3.84L35.79,46l-8.23-3.2-7-2.71-8.47-3.3C7.37,35,3.9,31.87,2.2,28a12.84,12.84,0,0,1-1-3.45,0,0,0,0,1,0,0A13.45,13.45,0,0,1,6,12.08c3.65-2.93,8.56-3.79,13.75-2.47,4.29-8,12-10,18-7.71C44.33,4.46,48.92,12.31,45,22.37Z"/></g></g></svg>