<svg xmlns="http://www.w3.org/2000/svg" viewBox="0 0 72.26 69.75"><defs><style>.cls-1{fill:none;stroke:#000;stroke-miterlimit:10;stroke-width:2px;}</style></defs><g id="Layer_2" data-name="Layer 2"><g id="Layer_1-2" data-name="Layer 1"><path class="cls-1" d="M36.69,12.87a28.17,28.17,0,0,0-4.43.35,29.89,29.89,0,0,1,3.88-5.9,30.15,30.15,0,0,1,3.8,5.75A25,25,0,0,0,36.69,12.87Z"/><path class="cls-1" d="M42.1,21.44c0,6.11-3.82,11.56-6,14.13-2.16-2.57-6-8-6-14.13a15.29,15.29,0,0,1,.35-3.26,23,23,0,0,1,6.18-.84,24.23,24.23,0,0,1,5,.53A16.21,16.21,0,0,1,42.1,21.44Z"/><path class="cls-1" d="M34.5,39.92l.2.21,1,1,.19-.77Zm1.83.43.19.77,1-1,.22-.21Z"/><path class="cls-1" d="M37.77,39.92l-1.44.43.19.77-.38.37-.4-.37.19-.77-1.43-.43C33.16,38.59,26,31,26,21.44c0-.53,0-1,.07-1.55a21.27,21.27,0,0,1,1.15-5.38A32.65,32.65,0,0,1,34.7,2.76l1.44-1.37,1.41,1.37a32.28,32.28,0,0,1,7.33,11.33,25.48,25.48,0,0,0-4.94-1,30.15,30.15,0,0,0-3.8-5.75,29.89,29.89,0,0,0-3.88,5.9,20.08,20.08,0,0,0-1.75,5,15.29,15.29,0,0,0-.35,3.26c0,6.11,3.82,11.56,6,14.13,2.14-2.57,6-8,6-14.13a16.21,16.21,0,0,0-.41-3.57,23.1,23.1,0,0,1,4.44,1.46c.06.69.11,1.39.11,2.11C46.24,31,39.1,38.59,37.77,39.92Z"/><path class="cls-1" d="M59.29,47.11a23.42,23.42,0,0,1-5.53,9.78,16.49,16.49,0,0,1-3-1.35c-5.3-3.06-8.09-9.08-9.24-12.23,3.29-.58,9.91-1.16,15.21,1.89.29.17.57.33.84.52A18.35,18.35,0,0,1,59.29,47.11Z"/><path class="cls-1" d="M65.93,57.44a30.88,30.88,0,0,1-5.83.44h-.58l-.7,0A27.2,27.2,0,0,0,62.69,51c.4.6.76,1.19,1.09,1.77s.64,1.15.9,1.7c.13.27.27.55.38.8Q65.6,56.51,65.93,57.44Z"/><path class="cls-1" d="M36.33,40.35l.19.77,1-1,.22-.21Z"/><path class="cls-1" d="M63.78,52.81c.34.58.63,1.15.9,1.7C64.42,54,64.12,53.39,63.78,52.81Z"/><path class="cls-1" d="M71.06,60.4l-1.9.55A33.23,33.23,0,0,1,60.69,62a27.65,27.65,0,0,1-5.31-.48,27.53,27.53,0,0,0,3.44-3.72l.7,0h.58a30.88,30.88,0,0,0,5.83-.44q-.33-.93-.87-2.13c-.11-.25-.25-.53-.38-.8-.26-.55-.56-1.12-.9-1.7s-.69-1.17-1.09-1.77h0c-.18-.26-.37-.53-.57-.79l-.41-.55-.14-.17c-.2-.25-.41-.51-.63-.76s-.45-.5-.69-.73a12,12,0,0,0-1-.92,18.35,18.35,0,0,0-1.77-1.39c-.27-.19-.55-.35-.84-.52-5.3-3.05-11.92-2.47-15.21-1.89,1.15,3.15,3.94,9.17,9.24,12.23a16.49,16.49,0,0,0,3,1.35,22.14,22.14,0,0,1-3.51,3c-.54-.25-1.07-.52-1.61-.83a24.93,24.93,0,0,1-9.21-10.17,33.11,33.11,0,0,1-2.64-6.67l-.27-1.15,1-1,.22-.21.46-.13c.46-.13,11.63-3.3,20.51,1.83.47.27.92.56,1.36.86a22,22,0,0,1,4,3.64,32.54,32.54,0,0,1,6.46,12.36Z"/><path class="cls-1" d="M10.32,50a27.46,27.46,0,0,0,4.16,7.73c-.25,0-.5.06-.74.07l-.68,0a30.3,30.3,0,0,1-6.72-.42A30.43,30.43,0,0,1,9.4,51.29c.18-.27.36-.54.56-.8S10.2,50.16,10.32,50Z"/><path class="cls-1" d="M30.8,43.31c-1.16,3.15-3.95,9.17-9.25,12.23-.36.2-.71.39-1.08.57l-.13,0c-.21.1-.41.19-.62.27l-.38.16A23.41,23.41,0,0,1,13.9,46.35h0l.06-.05c.25-.19.51-.38.76-.54s.56-.38.86-.55C20.88,42.15,27.5,42.73,30.8,43.31Z"/><path class="cls-1" d="M34.5,39.92l.2.21,1,1,.19-.77Z"/><path class="cls-1" d="M35.74,41.12l-.28,1.15c-.12.47-3,11.71-11.84,16.84l-.94.52a22.13,22.13,0,0,1-4.88,1.74,28.22,28.22,0,0,1-6.23.67A33.32,33.32,0,0,1,3.1,61L1.2,60.4l.47-1.92A32.15,32.15,0,0,1,9.09,45.1,26.94,26.94,0,0,0,10.32,50c-.12.15-.25.32-.36.48s-.38.53-.56.8a30.43,30.43,0,0,0-3.06,6.15,30.3,30.3,0,0,0,6.72.42l.68,0c.24,0,.49,0,.74-.07l.8-.11.64-.1a18.72,18.72,0,0,0,3.42-.94l.38-.16c.21-.08.41-.17.62-.27l.13,0c.35-.17.72-.37,1.08-.57,5.3-3.06,8.09-9.08,9.25-12.23-3.3-.58-9.92-1.16-15.22,1.89-.3.17-.58.36-.86.55a6.56,6.56,0,0,0-.76.54l-.06.05a21.9,21.9,0,0,1-.65-4.55c.09-.07.18-.11.27-.17a24,24,0,0,1,12-2.91A32.79,32.79,0,0,1,34,39.79l.47.13.2.21Z"/><path class="cls-1" d="M27.25,14.51a21.27,21.27,0,0,0-1.15,5.38A23.45,23.45,0,0,0,13.22,40.81c0,.32,0,.66,0,1a21.9,21.9,0,0,0,.65,4.55h0a23.41,23.41,0,0,0,5.44,10.24,18.72,18.72,0,0,1-3.42.94l-.64.1-.8.11A27.46,27.46,0,0,1,10.32,50,26.94,26.94,0,0,1,9.09,45.1h0a27.46,27.46,0,0,1-.34-4.28A28,28,0,0,1,27.25,14.51Z"/><path class="cls-1" d="M62.69,51h0a27.2,27.2,0,0,1-3.87,6.8,27.88,27.88,0,0,1-41,3.53,22.13,22.13,0,0,0,4.88-1.74,23.39,23.39,0,0,0,27.57.31,22.14,22.14,0,0,0,3.51-3,23.42,23.42,0,0,0,5.53-9.78,12,12,0,0,1,1,.92c.24.23.47.48.69.73s.43.51.63.76l.14.17.41.55C62.32,50.5,62.51,50.77,62.69,51Z"/><path class="cls-1" d="M64.63,40.81a27.47,27.47,0,0,1-.51,5.31,22,22,0,0,0-4-3.64c0-.54.06-1.1.06-1.67a23.47,23.47,0,0,0-14-21.48,23.1,23.1,0,0,0-4.44-1.46,24.23,24.23,0,0,0-5-.53,23,23,0,0,0-6.18.84,20.08,20.08,0,0,1,1.75-5,28.17,28.17,0,0,1,4.43-.35,25,25,0,0,1,3.25.2,25.48,25.48,0,0,1,4.94,1A28,28,0,0,1,64.63,40.81Z"/></g></g></svg>