<svg xmlns="http://www.w3.org/2000/svg" viewBox="0 0 80.37 78.91"><g id="Layer_2" data-name="Layer 2"><g id="Layer_1-2" data-name="Layer 1"><path d="M40.46,78.91c-5.86,0-10.83-2.8-12.75-7.16l3.84-2.69c1.09,4.22,6,5.37,8.91,5.37s7.87-1.17,8.91-5.46l3.75,3C51.15,76.18,46.23,78.91,40.46,78.91Zm17.61-6.8a10.81,10.81,0,0,1-4.15-.81l-.46-.18-.31.72.6-5.85a6.55,6.55,0,0,0,4.37,1.63,8.2,8.2,0,0,0,2.21-.32,11.86,11.86,0,0,0,7.8-7.77,5.88,5.88,0,0,0-.81-5L72,53.78l.07.18a10.35,10.35,0,0,1,.4,6.66,16.17,16.17,0,0,1-10.94,11,12.67,12.67,0,0,1-3.5.51ZM23.22,72A15.55,15.55,0,0,1,12.54,67c-3.9-4-5.27-8.88-3.67-13l4.83.48c-2.86,4.14,1.55,8.89,2.09,9.44,1.66,1.71,4.48,3.53,7.39,3.53a6,6,0,0,0,3.43-1l.66,4.76-.29.11A10.32,10.32,0,0,1,23.22,72ZM8.6,53.27C4,51.49,1,46.63,1,40.88c0-5.43,2.7-10.13,6.92-12.11l2.9,3.71c-4.16,1.18-5.3,5.75-5.3,8.4,0,3,1.38,8,6.42,8.63L8.85,53.37Zm60.24-3.73a7.09,7.09,0,0,0,5-2.56,9.69,9.69,0,0,0,2-6.1c0-3-1.45-8-6.74-8.63l3.58-3.69c4.67,1.84,7.68,6.67,7.68,12.32s-3.06,10.55-7.81,12.36Zm-1.71-22c3.67-4.23,2.14-8.69-.43-11.32a9.49,9.49,0,0,0-6.74-3,9.06,9.06,0,0,0-5.54,2l.07-5.29a12.69,12.69,0,0,1,5.43-1.21,14.18,14.18,0,0,1,10,4.36,12.49,12.49,0,0,1,2.4,14.75l-.18.35Zm-58.55.37a11.81,11.81,0,0,1-1.45-6.11A13.18,13.18,0,0,1,11,13.11,14.23,14.23,0,0,1,21,8.73,12.78,12.78,0,0,1,26.53,10l-.5,4.9A8.77,8.77,0,0,0,21,13.25a9.54,9.54,0,0,0-6.75,3,8.69,8.69,0,0,0-2.59,5.71A8.2,8.2,0,0,0,14.21,28l-5.5.15Zm41-14.31c-.45-5.61-4.81-8.1-9.13-8.1s-8.48,2.43-9,7.83l-4-3.13.11-.35C29.29,4.47,34.35,1,40.41,1s11.2,3.47,13,8.83l.18.55.58-.29Z" transform="translate(-0.5 -0.5)"/><path d="M40.41,1.5C46.3,1.5,51.2,4.83,52.91,10l.11.33-3.08,2.33C49.1,7.39,44.61,5,40.41,5,34.79,5,31.79,8.46,31,12.39L28,10h0C29.69,4.83,34.57,1.5,40.41,1.5M59.92,9.22a13.65,13.65,0,0,1,9.67,4.21A12,12,0,0,1,71.91,27.6l0,0-3.84-.5a8.38,8.38,0,0,0-1-11.29A10,10,0,0,0,60,12.74h0a9.29,9.29,0,0,0-5,1.51l0-3.39v-.61a12.26,12.26,0,0,1,4.94-1M21,9.23a12.37,12.37,0,0,1,5,1v.09L25.61,14A9.21,9.21,0,0,0,21,12.75a10.09,10.09,0,0,0-7.11,3.12,9.26,9.26,0,0,0-2.73,6,8.32,8.32,0,0,0,2,5.61L9,27.63a11.24,11.24,0,0,1-1.38-5.84,12.61,12.61,0,0,1,3.71-8.33A13.68,13.68,0,0,1,21,9.23M72.81,29.15c4.3,1.85,7.06,6.41,7.06,11.73s-2.8,9.95-7.19,11.78l-.07-.07L69.9,49.88a7.4,7.4,0,0,0,4.31-2.58,10.21,10.21,0,0,0,2.14-6.42c0-5.76-3.34-8.17-6.26-8.92l2.53-2.62.19-.19m-65,.25L10,32.23c-3.88,1.54-5,6-5,8.65,0,3,1.32,7.91,6,9L8.69,52.77C4.32,51,1.5,46.38,1.5,40.88c0-5.08,2.44-9.49,6.27-11.48m64,24.94A10,10,0,0,1,72,60.5a15.67,15.67,0,0,1-10.6,10.62,12.36,12.36,0,0,1-3.36.49,10.42,10.42,0,0,1-4-.77l-.34-.14.39-3.77a7,7,0,0,0,4,1.19,8.77,8.77,0,0,0,2.34-.34,12.39,12.39,0,0,0,8.16-8.12,6.51,6.51,0,0,0-.5-4.72l3.61-.6M9.21,54.5h.07l3.59.36a6.42,6.42,0,0,0,0,5.58,13.47,13.47,0,0,0,2.53,3.79c1.74,1.78,4.68,3.68,7.75,3.68a6.45,6.45,0,0,0,3-.72l.51,3.63a10,10,0,0,1-3.5.62A15,15,0,0,1,12.9,66.66c-3.65-3.75-5-8.26-3.69-12.16M49.64,69.82l2.48,2,.37.3c-2,3.87-6.62,6.34-12,6.34s-10.17-2.53-12.12-6.5l2.94-2c1.48,4,6.29,5.07,9.18,5.07s7.72-1.12,9.18-5.11M40.41.5h0C34.75.5,29,3.63,27.05,9.68a13.32,13.32,0,0,0-6-1.45,14.67,14.67,0,0,0-10.4,4.53,13.59,13.59,0,0,0-4,9,12.44,12.44,0,0,0,1.51,6.37C3.11,30.23.5,35.58.5,40.88S3.2,51.73,8.42,53.74C6.76,58,8.05,63.11,12.19,67.35a16,16,0,0,0,11,5.1,11,11,0,0,0,3.94-.72c2.09,5.06,7.72,7.68,13.3,7.68s11.17-2.61,13.27-7.64a11.6,11.6,0,0,0,4.34.84,13.66,13.66,0,0,0,3.63-.52A16.74,16.74,0,0,0,73,60.74a10.94,10.94,0,0,0-.43-7c5.47-2,8.3-7.47,8.3-12.89s-2.75-10.76-8.08-12.82a13,13,0,0,0-2.48-15.33A14.69,14.69,0,0,0,59.92,8.22a13.45,13.45,0,0,0-6.06,1.45c-2-6-7.75-9.17-13.45-9.17ZM31.84,14.3C31.92,8.56,36.19,6,40.41,6s8.67,2.62,8.67,8.49v.09L54,10.85l-.06,5.45A8.79,8.79,0,0,1,60,13.74a9,9,0,0,1,6.39,2.81c2.56,2.62,4,7.16-.26,11.34l5.82.76-3.91,4c5.8,0,7.35,5.16,7.35,8.2a9.21,9.21,0,0,1-1.91,5.78,6.81,6.81,0,0,1-5.51,2.42h-.26l4.24,4.22-5.5.91a5.43,5.43,0,0,1,1.24,5.2,11.31,11.31,0,0,1-7.46,7.41,7.71,7.71,0,0,1-2.07.3,6.14,6.14,0,0,1-4.37-1.8l-.4-.39L52.74,71,49,68.06c-.52,4.61-5.54,5.87-8.57,5.87s-8-1.23-8.57-5.72L27.77,71.1,27,65.46a5.54,5.54,0,0,1-3.8,1.46c-2.67,0-5.39-1.69-7-3.38C15.6,63,11,58,14.67,54.05l-5.29-.53,3.55-4.45C7.48,49,6,43.91,6,40.88c0-2.8,1.24-7.35,5.68-8.09L8.45,28.65l7-.19L14.9,28a7.88,7.88,0,0,1-2.76-6,8.22,8.22,0,0,1,2.45-5.38A9,9,0,0,1,21,13.75a8.59,8.59,0,0,1,5.46,2.06L27,10.47l4.86,3.83Z" transform="translate(-0.5 -0.5)"/><path d="M40.51,69.05c-4.3,0-7.95-2-9.4-5.21L33.76,62c.92,3.09,4.59,3.95,6.75,3.95s5.87-.87,6.76-4l2.58,2C48.37,67.07,44.75,69.05,40.51,69.05Zm13.22-5.11a8.14,8.14,0,0,1-3.07-.59l-.43-.17.35-3.46a5,5,0,0,0,3.18,1.11,5.92,5.92,0,0,0,1.69-.25,9,9,0,0,0,5.94-5.91A4.53,4.53,0,0,0,60.87,51l3.25-.54,0,0a7.69,7.69,0,0,1,.29,4.92,12,12,0,0,1-8.12,8.14,9.35,9.35,0,0,1-2.58.37Zm-26.15-.12a11.53,11.53,0,0,1-7.91-3.66c-2.87-2.94-3.89-6.51-2.76-9.56l3.32.33c-2,3.14,1.29,6.65,1.7,7.07a8.5,8.5,0,0,0,5.63,2.68A4.6,4.6,0,0,0,30,60l.45,3.28-.12,0A7.83,7.83,0,0,1,27.58,63.82Zm-10.91-14c-3.42-1.32-5.62-4.92-5.62-9.18,0-4,1.95-7.44,5-8.93l2,2.56c-3,1-3.9,4.38-3.9,6.37,0,2.26,1,6,4.71,6.57l-2.12,2.65Zm45.41-2.59a5.38,5.38,0,0,0,3.55-1.94,7.36,7.36,0,0,0,1.56-4.65c0-2.26-1.07-5.95-4.92-6.56l2.45-2.53a9.53,9.53,0,0,1,5.61,9.09,9.51,9.51,0,0,1-5.71,9.13ZM60.76,30.53a6.05,6.05,0,0,0-.47-8.48,7.26,7.26,0,0,0-5.15-2.26,6.91,6.91,0,0,0-4,1.36l0-3.64a9.53,9.53,0,0,1,4-.86,10.51,10.51,0,0,1,7.44,3.24A9.26,9.26,0,0,1,64.33,30.8l-.1.19Zm-44,.32a8.83,8.83,0,0,1-1.08-4.52,9.71,9.71,0,0,1,2.86-6.42,10.52,10.52,0,0,1,7.44-3.25,9.4,9.4,0,0,1,4,.89l-.34,3.38a6.76,6.76,0,0,0-3.68-1.13,7.29,7.29,0,0,0-5.15,2.27,6.58,6.58,0,0,0-2,4.36,6.16,6.16,0,0,0,1.77,4.44l-3.77.1ZM47.43,19.94c-.44-4.13-3.71-6-7-6s-6.36,1.79-6.86,5.77l-2.74-2.16.05-.18a9.75,9.75,0,0,1,9.55-6.54,9.8,9.8,0,0,1,9.61,6.54l.14.42Z" transform="translate(-0.5 -0.5)"/><path d="M40.48,11.36a9.3,9.3,0,0,1,9.13,6.2l0,.07L47.8,19a7.17,7.17,0,0,0-7.32-5.56,7.12,7.12,0,0,0-7.2,5.36L31.46,17.4a9.27,9.27,0,0,1,9-6m14.63,5.79a10,10,0,0,1,7.08,3.09A8.76,8.76,0,0,1,64,30.45l-2.29-.3a6.59,6.59,0,0,0-1-8.45,7.81,7.81,0,0,0-5.51-2.41,7.13,7.13,0,0,0-3.51.94l0-2.09v-.3a8.93,8.93,0,0,1,3.45-.69m-29.17,0a9,9,0,0,1,3.46.7l-.23,2.25a7.15,7.15,0,0,0-3.26-.81,7.76,7.76,0,0,0-5.51,2.42,7.14,7.14,0,0,0-2.12,4.7,6.31,6.31,0,0,0,1.25,4l-2.45.07a8.28,8.28,0,0,1-.94-4.12,9.21,9.21,0,0,1,2.72-6.08,10,10,0,0,1,7.08-3.1m38.9,15a9.11,9.11,0,0,1,5,8.5,9.07,9.07,0,0,1-5.09,8.54l-1.65-1.65A5.81,5.81,0,0,0,66,45.62a7.88,7.88,0,0,0,1.67-5c0-2.85-1.41-5.88-4.46-6.84l1.59-1.64,0,0m-48.91.21,1.34,1.7c-2.46,1.17-3.59,4-3.59,6.59,0,3.88,2,6.09,4.35,6.85l-1.42,1.77c-3.08-1.32-5.06-4.67-5.06-8.62a9.28,9.28,0,0,1,4.38-8.29M63.8,51A7.23,7.23,0,0,1,64,55.3a11.49,11.49,0,0,1-7.77,7.79,9.25,9.25,0,0,1-2.46.35,7.52,7.52,0,0,1-2.87-.55l-.08,0L51,60.61a5.47,5.47,0,0,0,2.76.72,6.54,6.54,0,0,0,1.83-.27,9.43,9.43,0,0,0,6.29-6.27,5.2,5.2,0,0,0-.24-3.41L63.8,51m-46.55.12,2.2.22c-1.07,2.63.68,5.51,2.12,7a9,9,0,0,0,6,2.83,5.11,5.11,0,0,0,2.07-.42l.3,2.18a7.07,7.07,0,0,1-2.35.39A11,11,0,0,1,20,59.81c-2.62-2.68-3.63-5.89-2.78-8.67M47.51,62.75,49.11,64l.11.09c-1.5,2.73-4.83,4.45-8.71,4.45S33.23,66.78,31.75,64l1.77-1.23c1.14,2.52,4.15,3.67,7,3.67s5.86-1.15,7-3.69m-7-52.39h0a10.29,10.29,0,0,0-10,6.89,10,10,0,0,0-4.52-1.09,11,11,0,0,0-7.8,3.4,10.23,10.23,0,0,0-3,6.75,9.33,9.33,0,0,0,1.14,4.77c-3.78,1.58-5.73,5.59-5.73,9.57s2,8.13,5.94,9.65c-1.25,3.19-.28,7,2.82,10.2a12,12,0,0,0,8.27,3.83,8.21,8.21,0,0,0,3-.55c1.57,3.8,5.79,5.77,10,5.77s8.39-2,10-5.74a8.55,8.55,0,0,0,3.25.63,10.11,10.11,0,0,0,2.73-.39,12.53,12.53,0,0,0,8.47-8.5,8.22,8.22,0,0,0-.32-5.23c4.1-1.49,6.23-5.6,6.23-9.67S68.76,32.58,64.77,31a9.78,9.78,0,0,0-1.87-11.5,11,11,0,0,0-7.79-3.39,10.13,10.13,0,0,0-4.55,1.09,10.35,10.35,0,0,0-10.08-6.88ZM34.05,20.71c.06-4.3,3.26-6.24,6.43-6.24s6.5,2,6.5,6.37v.07l3.67-2.79,0,4.1a6.6,6.6,0,0,1,4.54-1.93,6.76,6.76,0,0,1,4.79,2.11c1.92,2,3,5.37-.19,8.51l4.36.56-2.93,3c4.35,0,5.52,3.87,5.52,6.15A6.88,6.88,0,0,1,65.25,45a5.09,5.09,0,0,1-4.13,1.82h-.19L64.1,50,60,50.65a4.09,4.09,0,0,1,.93,3.9,8.47,8.47,0,0,1-5.6,5.55,5.61,5.61,0,0,1-1.55.23A4.58,4.58,0,0,1,50.49,59l-.3-.29-.46,4.54L46.94,61c-.38,3.45-4.15,4.4-6.43,4.4s-6-.93-6.42-4.29L31,63.31l-.59-4.22a4.16,4.16,0,0,1-2.85,1.09,8.07,8.07,0,0,1-5.28-2.53c-.41-.43-3.87-4.16-1.11-7.13l-4-.39,2.66-3.34c-4.09,0-5.19-3.87-5.19-6.14,0-2.1.94-5.51,4.27-6.07l-2.44-3.11,5.22-.13L21.35,31a5.92,5.92,0,0,1-2.07-4.52,6.14,6.14,0,0,1,1.83-4,6.83,6.83,0,0,1,4.8-2.12A6.46,6.46,0,0,1,30,21.84l.4-4,3.65,2.87Z" transform="translate(-0.5 -0.5)"/><path d="M40.57,59.18a6.56,6.56,0,0,1-6.06-3.25l1.47-1c.74,2,3.15,2.53,4.59,2.53s3.86-.56,4.59-2.55L46.59,56A6.59,6.59,0,0,1,40.57,59.18Zm8.81-3.4a5.29,5.29,0,0,1-2-.38l-.17-.07.19-1.89a3.47,3.47,0,0,0,2,.6,4.36,4.36,0,0,0,1.17-.17,6.18,6.18,0,0,0,4.08-4.06,3.23,3.23,0,0,0-.25-2.36l1.81-.3a5,5,0,0,1,.15,3.08,7.85,7.85,0,0,1-5.3,5.31A6.2,6.2,0,0,1,49.38,55.78ZM32,55.7a7.51,7.51,0,0,1-5.16-2.39C25,51.43,24.29,49.18,25,47.23l1.82.18c-1.09,2.14,1,4.41,1.29,4.69a5.83,5.83,0,0,0,3.87,1.84,3.25,3.25,0,0,0,1.52-.36l.25,1.81A4.89,4.89,0,0,1,32,55.7Zm-7.26-9.34a6.16,6.16,0,0,1-3.6-5.94,6.32,6.32,0,0,1,3.14-5.74l1.11,1.41c-1.94.77-2.49,3-2.49,4.33,0,1.51.66,3.95,3,4.49Zm30.6-1.44a3.73,3.73,0,0,0,2.16-1.29,5.13,5.13,0,0,0,1.07-3.21,4.37,4.37,0,0,0-3.12-4.48l1.35-1.39a6.22,6.22,0,0,1,3.53,5.87,6.19,6.19,0,0,1-3.6,5.89Zm-.91-11.37a4.23,4.23,0,0,0-.51-5.65,5,5,0,0,0-3.54-1.55,4.63,4.63,0,0,0-2.52.75l0-2a6.21,6.21,0,0,1,2.47-.51,6.83,6.83,0,0,1,4.84,2.1,6,6,0,0,1,1.16,7.09v0Zm-29.53.24a5.56,5.56,0,0,1-.69-2.91A6.31,6.31,0,0,1,26,26.71a6.84,6.84,0,0,1,4.85-2.12,6.14,6.14,0,0,1,2.48.53L33.15,27a4.64,4.64,0,0,0-2.32-.64,5,5,0,0,0-3.55,1.56,4.64,4.64,0,0,0-1.37,3,4.19,4.19,0,0,0,1,2.81Zm20.46-7.48a4.6,4.6,0,0,0-4.76-3.84,4.51,4.51,0,0,0-4.7,3.7L34.34,25h0a6.33,6.33,0,0,1,6.21-4.24A6.37,6.37,0,0,1,46.8,25l.05.17Z" transform="translate(-0.5 -0.5)"/><path d="M40.55,21.23A5.93,5.93,0,0,1,46.26,25l-.63.48A5.15,5.15,0,0,0,40.55,22a5.11,5.11,0,0,0-5,3.33l-.63-.49a5.91,5.91,0,0,1,5.62-3.58m9.75,3.86A6.33,6.33,0,0,1,54.78,27,5.57,5.57,0,0,1,56,33.25l-.78-.1a4.73,4.73,0,0,0-1-5.6,5.53,5.53,0,0,0-3.9-1.7h0a5,5,0,0,0-2,.42v-.83a5.8,5.8,0,0,1,2-.35m-19.44,0a5.63,5.63,0,0,1,1.94.35l-.08.79a4.91,4.91,0,0,0-1.89-.38,5.57,5.57,0,0,0-3.91,1.71,5.16,5.16,0,0,0-1.51,3.36A4.58,4.58,0,0,0,26,33.26l-.83,0a5.15,5.15,0,0,1-.49-2.4,5.74,5.74,0,0,1,1.71-3.83,6.35,6.35,0,0,1,4.49-2m26,10.07a5.78,5.78,0,0,1,2.92,5.26,5.81,5.81,0,0,1-3,5.29l-.56-.56a4.2,4.2,0,0,0,1.6-1.21A5.54,5.54,0,0,0,59,40.42a5,5,0,0,0-2.71-4.7l.55-.56m-32.76.17.47.59a5.22,5.22,0,0,0-2.22,4.5A5,5,0,0,0,25,45.15l-.48.6a5.78,5.78,0,0,1-2.95-5.33,6,6,0,0,1,2.51-5.09M55.87,47.71a4.61,4.61,0,0,1,0,2.39,7.31,7.31,0,0,1-4.95,5,5.56,5.56,0,0,1-1.54.22A4.68,4.68,0,0,1,47.76,55l.08-.77a4.13,4.13,0,0,0,1.56.31,5,5,0,0,0,1.31-.19,6.65,6.65,0,0,0,4.43-4.42,3.89,3.89,0,0,0,0-2.09l.76-.13m-30.56.06.77.08c-.47,1.78.67,3.62,1.62,4.6a6.34,6.34,0,0,0,4.23,2A4,4,0,0,0,33,54.28l.11.76a4.34,4.34,0,0,1-1.2.16A7,7,0,0,1,27.15,53a5.72,5.72,0,0,1-1.84-5.19m10.48,7.88a5.43,5.43,0,0,0,4.78,2.29,5.45,5.45,0,0,0,4.77-2.27l.6.47a6.27,6.27,0,0,1-5.37,2.54,6.24,6.24,0,0,1-5.4-2.59l.62-.44m4.76-35.42h0a6.85,6.85,0,0,0-6.68,4.59,6.7,6.7,0,0,0-3-.73,7.34,7.34,0,0,0-5.2,2.27,6.74,6.74,0,0,0-2,4.5A6.25,6.25,0,0,0,24.41,34a6.75,6.75,0,0,0-3.82,6.38,6.71,6.71,0,0,0,4,6.43c-.83,2.13-.18,4.68,1.89,6.8A7.94,7.94,0,0,0,32,56.2a5.37,5.37,0,0,0,2-.36c1,2.53,3.86,3.84,6.65,3.84s5.59-1.3,6.64-3.82a5.67,5.67,0,0,0,2.17.42A6.77,6.77,0,0,0,51.19,56a8.35,8.35,0,0,0,5.65-5.67,5.52,5.52,0,0,0-.21-3.49,6.67,6.67,0,0,0,4.15-6.44,6.7,6.7,0,0,0-4-6.41,6.51,6.51,0,0,0-1.24-7.66,7.33,7.33,0,0,0-5.2-2.26,6.73,6.73,0,0,0-3,.72,6.89,6.89,0,0,0-6.72-4.58Zm-4.29,6.9A4.05,4.05,0,0,1,40.55,23a4.06,4.06,0,0,1,4.33,4.24v.05l2.45-1.86,0,2.73a4.39,4.39,0,0,1,3-1.28,4.53,4.53,0,0,1,3.2,1.4,3.77,3.77,0,0,1-.13,5.67l2.91.38-2,2c2.9,0,3.68,2.58,3.68,4.1a4.59,4.59,0,0,1-1,2.89,3.39,3.39,0,0,1-2.75,1.21h-.13l2.12,2.11-2.75.45a2.73,2.73,0,0,1,.62,2.6,5.67,5.67,0,0,1-3.73,3.71,4.14,4.14,0,0,1-1,.15,3.08,3.08,0,0,1-2.18-.9l-.2-.2-.31,3L44.86,54c-.26,2.3-2.77,2.93-4.29,2.93s-4-.61-4.28-2.86l-2.06,1.45-.4-2.82a2.76,2.76,0,0,1-1.9.73,5.35,5.35,0,0,1-3.51-1.69c-.28-.28-2.59-2.77-.74-4.75L25,46.74l1.78-2.23c-2.73,0-3.46-2.58-3.46-4.09s.62-3.68,2.84-4.05L24.57,34.3l3.48-.09L27.79,34a4,4,0,0,1-1.38-3,4.13,4.13,0,0,1,1.23-2.69,4.54,4.54,0,0,1,3.19-1.41,4.3,4.3,0,0,1,2.73,1l.27-2.67,2.43,1.92Z" transform="translate(-0.5 -0.5)"/><path d="M40.63,49.32a3.1,3.1,0,0,1-2.7-1.3l.31-.22A2.72,2.72,0,0,0,40.63,49,2.75,2.75,0,0,0,43,47.81l.29.24A3.13,3.13,0,0,1,40.63,49.32Zm4.4-1.7a2.36,2.36,0,0,1-.8-.14l0-.39a2,2,0,0,0,.77.16,2.16,2.16,0,0,0,.66-.1,3.31,3.31,0,0,0,2.21-2.21,1.93,1.93,0,0,0,0-1l.38-.07a2.44,2.44,0,0,1,0,1.2,3.65,3.65,0,0,1-2.48,2.48,3,3,0,0,1-.77.11Zm-8.71,0a3.49,3.49,0,0,1-2.4-1.12,2.85,2.85,0,0,1-.92-2.6l.38,0a2.64,2.64,0,0,0,.81,2.3,3.2,3.2,0,0,0,2.12,1,2,2,0,0,0,.55-.08l.06.38A2.41,2.41,0,0,1,36.32,47.58Zm-3.71-4.73a2.87,2.87,0,0,1-1.47-2.66,3,3,0,0,1,1.26-2.55l.23.3a2.6,2.6,0,0,0-1.11,2.25,2.5,2.5,0,0,0,1.33,2.36Zm15.84-.3a2,2,0,0,0,.81-.6,2.79,2.79,0,0,0,.59-1.76,2.51,2.51,0,0,0-1.35-2.35l.27-.28a3.09,3.09,0,0,1,0,5.27ZM32.92,36.62a2.62,2.62,0,0,1-.25-1.2,2.87,2.87,0,0,1,.86-1.91,3.14,3.14,0,0,1,2.24-1,2.68,2.68,0,0,1,1,.17l0,.39a2.54,2.54,0,0,0-.94-.19,2.8,2.8,0,0,0-2,.86,2.56,2.56,0,0,0-.75,1.68,2.21,2.21,0,0,0,.29,1.17Zm15-.07a2.37,2.37,0,0,0-.49-2.8,2.77,2.77,0,0,0-2-.85,2.49,2.49,0,0,0-1,.21V32.7a2.78,2.78,0,0,1,1-.18,3.16,3.16,0,0,1,2.24,1,2.78,2.78,0,0,1,.61,3.1Zm-4.8-3.85a2.71,2.71,0,0,0-5-.07l-.31-.25a3.1,3.1,0,0,1,5.66.08Z" transform="translate(-0.5 -0.5)"/><path d="M40.62,30.09h0a3.41,3.41,0,0,0-3.34,2.3A3.35,3.35,0,0,0,35.77,32a3.67,3.67,0,0,0-2.6,1.13,3.39,3.39,0,0,0-1,2.25A3.2,3.2,0,0,0,32.55,37a3.61,3.61,0,0,0,.07,6.4,3.23,3.23,0,0,0,.94,3.41,4,4,0,0,0,2.76,1.27,2.78,2.78,0,0,0,1-.18,3.84,3.84,0,0,0,6.65,0,2.81,2.81,0,0,0,1.08.21,3.23,3.23,0,0,0,.91-.13,4.17,4.17,0,0,0,2.82-2.84,2.71,2.71,0,0,0-.1-1.74A3.55,3.55,0,0,0,48.71,37a3.25,3.25,0,0,0-.62-3.83A3.67,3.67,0,0,0,45.49,32a3.23,3.23,0,0,0-1.51.37,3.45,3.45,0,0,0-3.36-2.3Zm-2.15,3.45a2.16,2.16,0,0,1,4.31,0v0L44,32.68,44,34a2.23,2.23,0,0,1,1.52-.64,2.27,2.27,0,0,1,1.59.7A1.89,1.89,0,0,1,47,36.94l1.45.19-1,1a1.88,1.88,0,0,1,1.84,2,2.25,2.25,0,0,1-.48,1.44,1.69,1.69,0,0,1-1.37.61h-.07l1.06,1-1.37.23a1.39,1.39,0,0,1,.31,1.3,2.84,2.84,0,0,1-1.87,1.85,2,2,0,0,1-.52.08A1.56,1.56,0,0,1,44,46.3l-.1-.1-.15,1.51L42.77,47c-.13,1.15-1.38,1.47-2.14,1.47s-2-.31-2.14-1.43l-1,.72-.2-1.41a1.4,1.4,0,0,1-.95.37,2.68,2.68,0,0,1-1.76-.85c-.14-.14-1.29-1.38-.37-2.37l-1.32-.13.89-1.11A1.85,1.85,0,0,1,32,40.19a1.92,1.92,0,0,1,1.42-2l-.81-1,1.74-.05L34.24,37a2,2,0,0,1-.69-1.51,2,2,0,0,1,.61-1.34,2.27,2.27,0,0,1,1.6-.71,2.14,2.14,0,0,1,1.36.52l.14-1.34,1.21,1Z" transform="translate(-0.5 -0.5)"/></g></g></svg>