<svg xmlns="http://www.w3.org/2000/svg" viewBox="0 0 62.64 68"><defs><style>.cls-1{fill:none;stroke:#000;stroke-miterlimit:10;stroke-width:2px;}</style></defs><g id="Layer_2" data-name="Layer 2"><g id="Layer_1-2" data-name="Layer 1"><polygon class="cls-1" points="46.69 39.39 47.76 39.95 47.06 38.74 44.32 34 42.49 30.82 46.69 28.61 47.06 29.26 49.8 34 60.05 51.76 44.31 43.49 46.69 39.39"/><polygon class="cls-1" points="31.32 36.68 22.53 41.29 18.33 43.49 2.59 51.76 12.84 34 15.58 38.74 14.88 39.95 15.95 39.39 20.16 37.18 26.21 34 31.32 36.68"/><polygon class="cls-1" points="44.31 24.51 40.12 26.71 31.32 11.48 22.53 26.71 20.16 30.82 18.32 34 15.58 29.26 15.95 28.61 18.33 24.51 31.32 2 44.31 24.51"/><polygon class="cls-1" points="42.49 37.18 40.12 41.29 31.32 36.68 26.21 34 20.16 30.82 22.53 26.71 31.32 31.32 36.43 34 42.49 37.18"/><polygon class="cls-1" points="20.16 37.18 15.95 39.39 15.58 38.74 12.84 34 2.59 16.25 18.33 24.51 15.95 28.61 14.88 28.05 15.58 29.26 18.32 34 20.16 37.18"/><polygon class="cls-1" points="47.06 38.74 46.69 39.39 44.31 43.49 31.32 66 18.33 43.49 22.53 41.29 31.32 56.52 40.12 41.29 42.49 37.18 44.32 34 47.06 38.74"/><polygon class="cls-1" points="60.05 16.25 49.8 34 47.06 29.26 47.76 28.05 46.69 28.61 42.49 30.82 36.43 34 31.32 31.32 40.12 26.71 44.31 24.51 60.05 16.25"/></g></g></svg>